<?xml version="1.0" encoding="utf-8"?>
<!-- Generator: Adobe Illustrator 27.1.1, SVG Export Plug-In . SVG Version: 6.00 Build 0)  -->
<svg version="1.1" id="Layer_1" xmlns="http://www.w3.org/2000/svg" xmlns:xlink="http://www.w3.org/1999/xlink" x="0px" y="0px"
	 viewBox="0 0 88 24" style="enable-background:new 0 0 88 24;" xml:space="preserve">
<style type="text/css">
	.st0{fill:url(#SVGID_1_);}
	.st1{fill:url(#SVGID_00000123403873376695789440000010538089434174843807_);}
	.st2{fill:url(#SVGID_00000104686014308403496410000007011018679828008624_);}
	.st3{fill:#FF4E00;}
</style>
<linearGradient id="SVGID_1_" gradientUnits="userSpaceOnUse" x1="1" y1="17.1271" x2="26.6836" y2="17.1271" gradientTransform="matrix(1 0 0 -1 0 26)">
	<stop  offset="0" style="stop-color:#F4B01B"/>
	<stop  offset="0.99" style="stop-color:#EE4500"/>
	<stop  offset="1" style="stop-color:#EE4500"/>
</linearGradient>
<path class="st0" d="M13.8,1C13.8,1,13.8,1,13.8,1c-0.4,0-0.7,0.1-0.9,0.3L1.4,13.3C1.1,13.5,1,13.8,1,14.2v0c0,0.4,0.2,0.8,0.5,1.2
	c0,0,0.2,0.3,0.8,0.9c0.6,0.6,1,0.4,1.6,0C4.5,15.9,13,10,13,10c0.7-0.4,1-0.4,1.7,0c0,0,8.5,6,9.1,6.4c0.6,0.4,1,0.6,1.6,0
	c0.6-0.6,0.8-0.9,0.8-0.9c0.6-0.6,0.6-1.6,0.1-2.1L14.7,1.3C14.5,1.1,14.2,1,13.8,1C13.9,1,13.9,1,13.8,1C13.9,1,13.8,1,13.8,1"/>
<linearGradient id="SVGID_00000054234629496836790460000014110006940303287989_" gradientUnits="userSpaceOnUse" x1="3.248" y1="7.9247" x2="24.4346" y2="7.9247" gradientTransform="matrix(1 0 0 -1 0 26)">
	<stop  offset="0" style="stop-color:#F4B01B"/>
	<stop  offset="0.99" style="stop-color:#EE4500"/>
	<stop  offset="1" style="stop-color:#EE4500"/>
</linearGradient>
<path style="fill:url(#SVGID_00000054234629496836790460000014110006940303287989_);" d="M13.2,13.4l-9.6,6.7
	c-0.4,0.4-0.4,1.2,0.1,1.8c0,0,0.2,0.3,0.7,0.8c0.1,0.1,0.5,0.4,1,0.3c2-0.7,6.2-2.6,7.6-3.1c0.4-0.1,0.6-0.2,0.9-0.2
	c0.3,0,0.5,0.1,0.9,0.2c1.4,0.5,5.6,2.5,7.6,3.1c0.5,0.1,0.9-0.2,1-0.3c0.5-0.5,0.7-0.8,0.7-0.8c0.5-0.5,0.5-1.3,0.1-1.8l-9.6-6.7
	c-0.3-0.2-0.5-0.3-0.7-0.3C13.6,13.2,13.4,13.2,13.2,13.4"/>
<linearGradient id="SVGID_00000114045437963976921810000013074213335014098875_" gradientUnits="userSpaceOnUse" x1="3.248" y1="7.925" x2="19.9276" y2="7.925" gradientTransform="matrix(1 0 0 -1 0 26)">
	<stop  offset="0" style="stop-color:#EF453C"/>
	<stop  offset="0.98" style="stop-color:#F12C22"/>
	<stop  offset="1" style="stop-color:#F12C22"/>
</linearGradient>
<path style="fill:url(#SVGID_00000114045437963976921810000013074213335014098875_);" d="M19.9,17.2l-5.4-3.8
	c-0.3-0.2-0.5-0.3-0.7-0.3s-0.4,0.1-0.7,0.3l-9.6,6.7c-0.4,0.4-0.4,1.2,0.1,1.8c0,0,0.2,0.3,0.7,0.8c0.1,0.1,0.5,0.4,1,0.3
	c0.1,0,0.3-0.1,0.4-0.1c2.2-0.8,6-2.5,7.2-3c0.3-0.1,0.5-0.2,0.7-0.2C14.3,18.5,16.4,15.4,19.9,17.2L19.9,17.2z"/>
<path class="st3" d="M46.9,7.4h-4v12.5h-2.9V7.4h-4V4.8h11V7.4z"/>
<path class="st3" d="M59.1,19.9h-5.3c-1.7,0-2.9-0.3-3.6-0.9c-0.7-0.6-1-1.6-1-3.1V4.8h9.9v2.6h-7v3.5H57l-0.2,2.6h-4.7v2.1
	c0,0.6,0.1,1,0.4,1.2c0.3,0.2,0.8,0.3,1.5,0.3h5.1V19.9z"/>
<path class="st3" d="M69.6,14h2.7c0,1.9-0.5,3.4-1.4,4.4c-1,1-2.3,1.5-4.1,1.5c-3.9,0-5.8-2.3-5.8-6.8v-1.3c0-3.6,1-5.8,3-6.7
	c0.8-0.4,1.7-0.5,2.8-0.5c1.6,0,2.9,0.4,3.9,1.3c1,0.9,1.5,2.2,1.5,3.8h-2.8c-0.2-0.8-0.4-1.5-0.8-1.9c-0.4-0.4-1-0.6-1.9-0.6
	c-1,0-1.7,0.3-2.2,0.9c-0.3,0.4-0.5,1.2-0.6,2.2c0,0.3,0,0.8,0,1.4v1.3c0,1.6,0.2,2.7,0.7,3.3c0.5,0.6,1.2,0.9,2.2,0.9
	c1,0,1.7-0.3,2-0.8C69.3,16,69.5,15.2,69.6,14"/>
<path class="st3" d="M86.1,19.9h-2.9v-6.1h-5.5v6.1h-2.9V4.8h2.9v6.4h5.5V4.8h2.9V19.9z"/>
</svg>
